#!OML:ASF X:\für Bonn\!DataBase\2005_08_10_Bjorn_Final\c3d\bjorn.ASF
:FULLY-SPECIFIED
:DEGREES
397
root -0.59454 18.9927 5.16666 -539.299 32.6532 -536.923
lowerback -5.726 5.55551 3.03663
upperback 8.56035 7.94984 -2.07231
thorax 13.2775 4.41588 -2.50961
lowerneck 3.9357 -4.35257 8.43453
upperneck 28.1004 -2.93732 -0.12956
head 7.92504 0.65608 -1.46999
rclavicle -6.81831e-014 9.54166e-015
rhumerus -2.83191 16.1014 -84.0551
rradius 62.2098
rwrist 8.63093
rhand -18.3762 6.6857
rfingers 7.12502
rthumb 7.90727 -23.1464
lclavicle -6.81831e-014 9.54166e-015
lhumerus -11.243 -42.1835 82.1528
lradius 39.6961
lwrist 4.88582
lhand -24.3456 -6.32293
lfingers 7.12502
lthumb 2.14362 23.646
rfemur 361.523 5.49631 -350.295
rtibia 35.6228
rfoot -7.92536 15.1547
rtoes -29.2417
lfemur -18.6229 3.35462 -9.24987
ltibia 33.7648
lfoot -8.96413 -1.03483
ltoes -17.4915
398
root -0.576127 18.9671 5.24515 -539.341 32.4473 -537.143
lowerback -5.65425 5.45959 2.90828
upperback 8.62107 7.85031 -2.10158
thorax 13.2796 4.36395 -2.4941
lowerneck 3.82794 -4.30425 8.12526
upperneck 28.1967 -2.89219 -0.0417857
head 7.98387 0.655939 -1.38793
rclavicle 2.50469e-014 -2.06736e-014
rhumerus -4.41925 14.1809 -85.1041
rradius 59.7518
rwrist 8.63918
rhand -16.1975 5.7346
rfingers 7.12502
rthumb 10.0096 -24.0074
lclavicle 2.50469e-014 -2.06736e-014
lhumerus -11.9914 -40.2341 83.2556
lradius 35.8186
lwrist 5.19773
lhand -20.8261 -3.52842
lfingers 7.12502
lthumb 5.54229 26.3791
rfemur 361.669 5.42783 -350.384
rtibia 35.1945
rfoot -8.5857 15.511
rtoes -28.4791
lfemur -19.1413 4.32894 -9.26854
ltibia 34.0041
lfoot -8.75063 -2.25877
ltoes -16.9418
399
root -0.556563 18.9436 5.32379 -539.402 32.2637 -537.458
lowerback -5.58196 5.39214 2.73973
upperback 8.65901 7.80022 -2.18904
thorax 13.2632 4.33518 -2.51174
lowerneck 3.7058 -4.27074 7.8637
upperneck 28.2977 -2.87344 0.0729909
head 8.04615 0.651819 -1.30584
rclavicle -5.56597e-015 2.22639e-014
rhumerus -5.94491 12.0395 -86.0665
rradius 57.2514
rwrist 8.66455
rhand -14.2432 4.88435
rfingers 7.12502
rthumb 11.8946 -24.7578
lclavicle -5.56597e-015 2.22639e-014
lhumerus -12.3754 -37.4554 84.1587
lradius 31.5375
lwrist 4.03561
lhand -18.6129 -1.41419
lfingers 7.12502
lthumb 7.6788 28.4264
rfemur 361.762 5.35124 -350.563
rtibia 34.7796
rfoot -9.3097 15.8602
rtoes -27.8692
lfemur -19.6888 5.44193 -9.39961
ltibia 34.2177
lfoot -8.45317 -3.58688
ltoes -16.3931
400
root -0.536057 18.9217 5.40315 -539.531 32.0368 -537.93
lowerback -5.52462 5.31227 2.43894
upperback 8.7127 7.75511 -2.30215
thorax 13.2594 4.29917 -2.48161
lowerneck 3.58237 -4.23972 7.60317
upperneck 28.3228 -2.86004 0.126385
head 8.08033 0.631378 -1.24532
rclavicle 7.77248e-014 -1.19271e-014
rhumerus -7.33705 9.76109 -86.8647
rradius 54.748
rwrist 8.78018
rhand -12.4968 3.65926
rfingers 7.12502
rthumb 13.5782 -25.878
lclavicle 7.77248e-014 -1.19271e-014
lhumerus -12.3629 -33.438 84.7574
lradius 26.9999
lwrist 1.20067
lhand -17.294 -0.381192
lfingers 7.12502
lthumb 8.95169 29.4089
rfemur 361.846 5.2561 -350.867
rtibia 34.3701
rfoot -10.1099 16.1116
rtoes -27.3653
lfemur -20.2602 6.61442 -9.69877
ltibia 34.4125
lfoot -8.08509 -5.02558
ltoes -15.5431
401
root -0.515807 18.8968 5.48458 -539.645 31.8246 -538.381
lowerback -5.44419 5.25353 2.19717
upperback 8.7506 7.73433 -2.4387
thorax 13.2385 4.28206 -2.50747
lowerneck 3.45893 -4.22407 7.38657
upperneck 28.3664 -2.86482 0.187727
head 8.12021 0.610479 -1.19012
rclavicle -1.5704e-014 2.3059e-014
rhumerus -8.64364 7.14618 -87.5971
rradius 52.23
rwrist 9.12417
rhand -10.9714 2.52404
rfingers 7.12502
rthumb 15.048 -26.9091
lclavicle -1.5704e-014 2.3059e-014
lhumerus -12.0681 -27.9237 84.9101
lradius 22.425
lwrist -3.55587
lhand -15.212 0.334101
lfingers 7.12502
lthumb 10.9603 30.028
rfemur 361.93 5.20775 -351.134
rtibia 33.9594
rfoot -10.8953 16.329
rtoes -26.6457
lfemur -20.7531 7.75688 -10.0068
ltibia 34.6023
lfoot -7.80571 -6.35526
ltoes -15.066
402
root -0.494676 18.869 5.56828 -539.746 31.5908 -538.791
lowerback -5.34869 5.1888 1.98348
upperback 8.79957 7.70184 -2.5583
thorax 13.222 4.26181 -2.53297
lowerneck 3.33858 -4.20172 7.16817
upperneck 28.3559 -2.86565 0.231824
head 8.1405 0.584115 -1.14053
rclavicle -2.00773e-014 2.06736e-014
rhumerus -9.8402 4.13137 -88.2251
rradius 49.6415
rwrist 9.79231
rhand -9.79154 1.81956
rfingers 7.12502
rthumb 16.1844 -27.5248
lclavicle -2.00773e-014 2.06736e-014
lhumerus -11.4522 -19.7742 84.4918
lradius 17.7725
lwrist -11.3832
lhand -12.86 0.757428
lfingers 7.12502
lthumb 13.2281 30.3177
rfemur 362.036 5.18539 -351.328
rtibia 33.5425
rfoot -11.6988 16.466
rtoes -25.9463
lfemur -21.2591 8.92137 -10.2847
ltibia 34.7888
lfoot -7.4744 -7.74464
ltoes -14.5003
403
root -0.473618 18.8419 5.65412 -539.824 31.3411 -539.124
lowerback -5.21258 5.1131 1.84111
upperback 8.84495 7.64389 -2.66391
thorax 13.1823 4.23568 -2.59083
lowerneck 3.27728 -4.17494 6.95732
upperneck 28.3004 -2.8541 0.268954
head 8.13512 0.561335 -1.09331
rclavicle 4.90998e-014 -7.15625e-015
rhumerus -10.9978 0.998109 -88.7042
rradius 47.0801
rwrist 10.4194
rhand -9.11299 1.48115
rfingers 7.12502
rthumb 16.8377 -27.8088
lclavicle 4.90998e-014 -7.15625e-015
lhumerus -10.4395 -5.58655 83.1362
lradius 12.8249
lwrist -25.5111
lhand -10.8927 0.974871
lfingers 7.12502
lthumb 15.1238 30.4023
rfemur 362.181 5.24478 -351.396
rtibia 33.1139
rfoot -12.6073 16.463
rtoes -25.3469
lfemur -21.7452 8.50236 -10.412
ltibia 34.9829
lfoot -7.33821 -7.6109
ltoes -14.1694
404
root -0.452105 18.8154 5.7411 -539.862 31.0888 -539.415
lowerback -5.09377 5.05316 1.74907
upperback 8.8943 7.60149 -2.76446
thorax 13.1663 4.22149 -2.66556
lowerneck 3.22153 -4.15956 6.79694
upperneck 28.2171 -2.85445 0.267779
head 8.11719 0.532699 -1.06823
rclavicle -7.79236e-014 4.85035e-014
rhumerus -12.0871 -2.10784 -88.9984
rradius 44.5016
rwrist 10.7752
rhand -9.07409 1.3891
rfingers 7.12502
rthumb 16.8751 -27.8977
lclavicle -7.79236e-014 4.85035e-014
lhumerus -10.6354 27.8587 78.472
lradius 8.25274
lwrist -59.5557
lhand -10.2786 0.0892421
lfingers 7.12502
lthumb 15.7154 29.4711
rfemur 362.304 5.32792 -351.404
rtibia 32.687
rfoot -13.585 16.3447
rtoes -24.7558
lfemur -22.2499 8.08245 -10.4957
ltibia 35.1647
lfoot -7.19919 -7.47188
ltoes -13.8522
405
root -0.429811 18.79 5.82919 -539.906 30.8414 -539.723
lowerback -4.96636 4.99837 1.63574
upperback 8.94159 7.56987 -2.87252
thorax 13.1417 4.21126 -2.73568
lowerneck 3.13709 -4.15837 6.65328
upperneck 28.1533 -2.87583 0.258197
head 8.11002 0.496179 -1.05021
rclavicle -4.7112e-014 -2.3059e-014
rhumerus -13.1848 -5.0955 -89.1288
rradius 41.9632
rwrist 11.0327
rhand -9.61133 1.38227
rfingers 7.12502
rthumb 16.3579 -27.9479
lclavicle -4.7112e-014 -2.3059e-014
lhumerus -16.5318 61.0424 69.7137
lradius 6.42995
lwrist -94.194
lhand -10.9482 2.01161
lfingers 7.12502
lthumb 15.0704 31.443
rfemur 362.42 5.45416 -351.396
rtibia 32.2704
rfoot -14.6708 16.1181
rtoes -24.4433
lfemur -22.7446 7.66567 -10.6038
ltibia 35.334
lfoot -7.07605 -7.28645
ltoes -13.8308
406
root -0.407573 18.7638 5.91966 -539.956 30.5735 -540.012
lowerback -4.81568 4.94592 1.57487
upperback 9.01065 7.54437 -3.00198
thorax 13.1405 4.2133 -2.85722
lowerneck 3.01299 -4.15369 6.6207
upperneck 28.0567 -2.90335 0.223863
head 8.09648 0.462106 -1.06043
rclavicle 2.56432e-014 2.38542e-015
rhumerus -14.2534 -8.12971 -89.1498
rradius 39.4223
rwrist 11.3191
rhand -10.5555 1.36341
rfingers 7.12502
rthumb 15.4487 -28.0392
lclavicle 2.56432e-014 2.38542e-015
lhumerus 50.1547 98.8118 134.038
lradius 8.35472
lwrist -128.862
lhand -11.5287 2.30025
lfingers 7.12502
lthumb 14.5111 31.7728
rfemur 362.534 5.59415 -351.341
rtibia 31.8797
rfoot -15.7965 15.7844
rtoes -24.0757
lfemur -23.2103 7.23044 -10.6895
ltibia 35.4758
lfoot -6.96523 -7.08158
ltoes -13.9597
407
root -0.385999 18.7382 6.01187 -539.985 30.301 -540.262
lowerback -4.6384 4.8791 1.54916
upperback 9.06941 7.49108 -3.11709
thorax 13.1106 4.20398 -2.99038
lowerneck 2.92982 -4.14256 6.56127
upperneck 27.9789 -2.90511 0.170305
head 8.08302 0.438617 -1.07051
rclavicle -2.18663e-015 3.57812e-014
rhumerus -15.3616 -11.2202 -89.0195
rradius 36.9222
rwrist 11.5371
rhand -11.6078 1.28324
rfingers 7.12502
rthumb 14.435 -28.1947
lclavicle -2.18663e-015 3.57812e-014
lhumerus 10.195 129.746 91.6799
lradius 11.3565
lwrist -162.766
lhand -16.0422 2.41851
lfingers 7.12502
lthumb 10.1594 32.1532
rfemur 362.63 5.62657 -351.248
rtibia 31.5143
rfoot -17.059 15.3076
rtoes -24.5262
lfemur -23.6773 6.78936 -10.7341
ltibia 35.6007
lfoot -6.82477 -6.88259
ltoes -14.0587
